<?xml version="1.0" encoding="UTF-8" standalone="no"?>
<!-- Created with Inkscape (http://www.inkscape.org/) -->

<svg
   xmlns:dc="http://purl.org/dc/elements/1.1/"
   xmlns:cc="http://creativecommons.org/ns#"
   xmlns:rdf="http://www.w3.org/1999/02/22-rdf-syntax-ns#"
   xmlns:svg="http://www.w3.org/2000/svg"
   xmlns="http://www.w3.org/2000/svg"
   xmlns:xlink="http://www.w3.org/1999/xlink"
   xmlns:sodipodi="http://sodipodi.sourceforge.net/DTD/sodipodi-0.dtd"
   xmlns:inkscape="http://www.inkscape.org/namespaces/inkscape"
   version="1.0"
   width="744.21252"
   height="744.21252"
   id="svg2"
   xml:space="preserve"
   inkscape:version="0.47 r22583"
   sodipodi:docname="hikebikemap_marble.svg"
   inkscape:export-filename="/home/colin/Dropbox/Public/hikebike.png"
   inkscape:export-xdpi="1.935239"
   inkscape:export-ydpi="1.935239"><metadata
     id="metadata2940"><rdf:RDF><cc:Work
         rdf:about=""><dc:format>image/svg+xml</dc:format><dc:type
           rdf:resource="http://purl.org/dc/dcmitype/StillImage" /><dc:title></dc:title></cc:Work></rdf:RDF></metadata><sodipodi:namedview
     pagecolor="#ffffff"
     bordercolor="#666666"
     borderopacity="1"
     objecttolerance="10"
     gridtolerance="10"
     guidetolerance="10"
     inkscape:pageopacity="0"
     inkscape:pageshadow="2"
     inkscape:window-width="1024"
     inkscape:window-height="575"
     id="namedview2938"
     showgrid="false"
     inkscape:zoom="0.89693305"
     inkscape:cx="872.05326"
     inkscape:cy="358.66283"
     inkscape:window-x="0"
     inkscape:window-y="-2"
     inkscape:window-maximized="1"
     inkscape:current-layer="layer1" /><defs
     id="defs5"><inkscape:perspective
       sodipodi:type="inkscape:persp3d"
       inkscape:vp_x="0 : 372.10626 : 1"
       inkscape:vp_y="0 : 1000 : 0"
       inkscape:vp_z="744.21252 : 372.10626 : 1"
       inkscape:persp3d-origin="372.10626 : 248.07084 : 1"
       id="perspective2942" /><clipPath
       id="clipPath19"><path
         d="M 0.496094,0.496094 L 5953.25,0.496094 L 5953.25,5953.25 L 0.496094,5953.25 L 0.496094,0.496094 z"
         id="path21" /></clipPath><inkscape:perspective
       id="perspective2973"
       inkscape:persp3d-origin="0.5 : 0.33333333 : 1"
       inkscape:vp_z="1 : 0.5 : 1"
       inkscape:vp_y="0 : 1000 : 0"
       inkscape:vp_x="0 : 0.5 : 1"
       sodipodi:type="inkscape:persp3d" /><inkscape:perspective
       id="perspective3044"
       inkscape:persp3d-origin="0.5 : 0.33333333 : 1"
       inkscape:vp_z="1 : 0.5 : 1"
       inkscape:vp_y="0 : 1000 : 0"
       inkscape:vp_x="0 : 0.5 : 1"
       sodipodi:type="inkscape:persp3d" /><clipPath
       id="clipPath19-1"><path
         d="m 0.496094,0.496094 5952.753906,0 0,5952.753906 -5952.753906,0 0,-5952.753906 z"
         id="path21-9" /></clipPath><inkscape:perspective
       id="perspective3130"
       inkscape:persp3d-origin="0.5 : 0.33333333 : 1"
       inkscape:vp_z="1 : 0.5 : 1"
       inkscape:vp_y="0 : 1000 : 0"
       inkscape:vp_x="0 : 0.5 : 1"
       sodipodi:type="inkscape:persp3d" /><inkscape:perspective
       id="perspective3002"
       inkscape:persp3d-origin="0.5 : 0.33333333 : 1"
       inkscape:vp_z="1 : 0.5 : 1"
       inkscape:vp_y="0 : 1000 : 0"
       inkscape:vp_x="0 : 0.5 : 1"
       sodipodi:type="inkscape:persp3d" /></defs><g
     inkscape:groupmode="layer"
     id="layer4"
     inkscape:label="Background"
     style="display:inline" /><g
     inkscape:groupmode="layer"
     id="layer3"
     inkscape:label="Hike"
     style="display:inline" /><g
     inkscape:groupmode="layer"
     id="layer1"
     inkscape:label="Bike"
     style="display:inline"><image
       y="332.8201"
       x="525.13232"
       id="image3004"
       height="136"
       width="136"
       xlink:href="file:///home/colin/.local/share/marble/maps/earth/hikebikemap/preview.png"
       inkscape:export-filename="/home/colin/hb.png"
       inkscape:export-xdpi="90"
       inkscape:export-ydpi="90" /><g
       id="g2902"
       transform="matrix(0.08941948,0,0,0.08941948,557.71194,364.80942)"
       style="opacity:0.5"
       inkscape:export-filename="/home/colin/hb.png"
       inkscape:export-xdpi="90"
       inkscape:export-ydpi="90"><g
         id="g2893"
         style="display:inline"><path
           d="m 706.603,743.82558 c 10.1075,0 19.80125,-4.01611 26.94625,-11.16357 7.15125,-7.14889 11.165,-16.83989 11.165,-26.95026 l 0,-666.98275 c 0,-10.1075 -4.01375,-19.80125 -11.165,-26.95125 -7.145,-7.1475 -16.83875,-11.1625 -26.94625,-11.1625 l -666.984374,0 c -10.107375,0 -19.80225,4.015 -26.949663,11.1625 C 5.5210133,18.92775 1.5063608,28.6215 1.5063608,38.729 l 0,666.98275 c 0,10.11037 4.016115,19.80137 11.1626022,26.95026 7.147413,7.14746 16.842288,11.16357 26.949663,11.16357 l 666.984374,0"
           id="path27-4"
           style="fill:#ffffff;fill-opacity:1;fill-rule:nonzero;stroke:none" /><path
           d="m 710.603,728.76937 c 5.05375,0 9.9,-2.00875 13.47375,-5.5825 3.57375,-3.57225 5.58125,-8.42137 5.58125,-13.47512 l 0,-666.98275 c 0,-5.05375 -2.0075,-9.90125 -5.58125,-13.475 -3.57375,-3.57375 -8.42,-5.58125 -13.47375,-5.58125 l -666.984374,0 c -5.053625,0 -9.901375,2.0075 -13.475,5.58125 -3.57375,3.57375 -5.581125,8.42125 -5.581125,13.475 l 0,666.98275 c 0,10.5255 8.53125,19.05762 19.056125,19.05762 l 666.984374,0"
           id="path31-3"
           style="fill:#0046ac;fill-opacity:1;fill-rule:nonzero;stroke:none" /><path
           d="m 710.603,728.76937 c 5.05375,0 9.9,-2.00875 13.47375,-5.5825 3.57375,-3.57225 5.58125,-8.42137 5.58125,-13.47512 l 0,-666.98275 c 0,-5.05375 -2.0075,-9.90125 -5.58125,-13.475 -3.57375,-3.57375 -8.42,-5.58125 -13.47375,-5.58125 l -666.984374,0 c -5.053625,0 -9.901375,2.0075 -13.475,5.58125 -3.57375,3.57375 -5.581125,8.42125 -5.581125,13.475 l 0,666.98275 c 0,10.5255 8.53125,19.05762 19.056125,19.05762 l 666.984374,0 z"
           id="path33-1"
           style="fill:none;stroke:#0046ac;stroke-width:0.88477373;stroke-linecap:round;stroke-linejoin:round;stroke-miterlimit:500;stroke-opacity:1;stroke-dasharray:none" /></g><g
         id="g2872"><path
           d="m 287.60634,153.56238 c 0,-26.51898 -21.50068,-48.01967 -48.01967,-48.01967 -26.52319,0 -48.02178,21.50069 -48.02178,48.01967 0,26.51899 21.49859,48.01968 48.02178,48.01968 26.51899,0 48.01967,-21.50069 48.01967,-48.01968"
           id="path35-9"
           style="fill:#ffffff;fill-opacity:1;fill-rule:nonzero;stroke:none;display:inline" /><path
           d="m 138.43441,397.74981 51.02183,-147.38914 c 7.2615,-20.9751 25.91982,-35.91646 47.97553,-38.41195 22.0557,-2.49338 43.58161,7.89641 55.34424,26.71661 l 54.8544,87.76871 0,73.231 c 0,9.9441 -8.06249,18.0087 -18.00659,18.0087 -9.9483,0 -18.00869,-8.0646 -18.00869,-18.0087 l 0,-54.01976 -12.0044,-19.21124 0,176.7568 37.57733,81.653 c 5.54178,12.04434 0.27331,26.30455 -11.77314,31.85054 -12.04644,5.53968 -26.30244,0.2712 -31.85053,-11.77314 l -49.17807,-106.86012 0,-61.63446 -58.7143,164.40132 c -4.90479,13.73673 -20.01855,20.89312 -33.75527,15.99044 -13.73673,-4.90687 -20.89732,-20.01854 -15.99044,-33.75526 l 67.64297,-189.40241 0,-73.97523 -31.1,89.84584 c -2.01405,6.19771 -7.21735,10.82287 -13.60849,12.099 -6.39323,1.26981 -12.97147,-1.00703 -17.20559,-5.95805 -4.23833,-4.95103 -5.4661,-11.80678 -3.22079,-17.9225"
           id="path43-1"
           style="fill:#ffffff;fill-opacity:1;fill-rule:nonzero;stroke:none;display:inline" /><circle
           d="m 951,406 c 0,88.91784 -72.08216,161 -161,161 -88.91784,0 -161,-72.08216 -161,-161 0,-88.91784 72.08216,-161 161,-161 88.91784,0 161,72.08216 161,161 z"
           id="RearWheel"
           style="fill:none;stroke:#ffffff;stroke-width:40px"
           cx="790"
           cy="406"
           r="161"
           sodipodi:cx="790"
           sodipodi:cy="406"
           sodipodi:rx="161"
           sodipodi:ry="161"
           transform="matrix(0.612193,0,0,0.612193,57.399661,252.22201)" /><path
           sodipodi:nodetypes="cccccccccccccccccccc"
           d="m 240.54178,375.38348 c 163.27931,172.24394 102.021,144.31296 189.89196,147.81092 115.48552,-1.10739 124.87202,6.01158 126.24308,-10.91575 -0.1582,-5.74792 -2.84758,-9.17557 -82.10546,-185.56784 l 7.59357,-20.88232 26.10289,-0.4746 -0.94919,-21.83151 -97.29261,0 c -8.5955,11.75949 3.48039,11.70675 46.98521,21.35692 l -7.59357,21.3569 -194.11061,0.47461 C 363.77973,73.738365 133.8291,690.93748 240.54178,375.38348 z m 9.15636,-25.26561 189.94107,-0.33678 L 384.7449,497.28851 249.69814,350.11787 z m 212.84176,8.75614 -53.88399,141.44548 117.87123,0.33677 -63.98724,-141.78225 z"
           id="Frame"
           style="fill:#ffffff;fill-rule:evenodd;stroke:none" /></g></g></g></svg>